<svg id="undraw_share_opinion_re_4qk7" xmlns="http://www.w3.org/2000/svg" xmlns:xlink="http://www.w3.org/1999/xlink" viewBox="0 0 965.998300 727.777980" shape-rendering="geometricPrecision" text-rendering="geometricPrecision"><path id="undraw_share_opinion_re_4qk7-path1" d="M843.996440,259.058240L839.997660,259.058240L839.997660,149.512910C839.997671,114.497042,811.611728,86.111054,776.595860,86.111010L544.509130,86.111010C527.693911,86.110965,511.567382,92.790745,499.677199,104.680874C487.787016,116.571002,481.107162,132.697501,481.107130,149.512720L481.107130,750.487130C481.107114,767.302356,487.786930,783.428879,499.677090,795.319040C511.567251,807.209200,527.693774,813.889016,544.509000,813.889000L776.595560,813.889000C811.611423,813.889083,839.997461,785.503193,839.997560,750.487330L839.997560,337.034500L843.996400,337.034500Z" transform="matrix(1 0 0 1 -117.00100000000000 -86.11100000000000)" fill="rgb(63,61,86)" stroke="none" stroke-width="1"/><path id="undraw_share_opinion_re_4qk7-path2" d="M779.153910,102.606000L748.858910,102.606000C751.688042,109.542213,750.878764,117.431652,746.700369,123.649051C742.521973,129.866449,735.522757,133.595948,728.031760,133.596530L595.072310,133.596530C587.581299,133.595983,580.582059,129.866492,576.403655,123.649082C572.225252,117.431672,571.415990,109.542212,574.245160,102.606000L545.949560,102.606000C519.800105,102.605989,498.601764,123.804285,498.601720,149.953740L498.601720,750.046280C498.601712,762.603700,503.590120,774.646804,512.469551,783.526246C521.348982,792.405689,533.392080,797.394112,545.949500,797.394120L779.153910,797.394120C791.711330,797.394128,803.754434,792.405720,812.633876,783.526289C821.513319,774.646858,826.501742,762.603760,826.501750,750.046340L826.501750,750.046340L826.501750,149.953720C826.501734,137.396308,821.513306,125.353221,812.633864,116.473801C803.754421,107.594381,791.711322,102.605984,779.153910,102.606000Z" transform="matrix(1 0 0 1 -117.00100000000000 -86.11100000000000)" fill="rgb(255,255,255)" stroke="none" stroke-width="1"/><ellipse id="undraw_share_opinion_re_4qk7-ellipse1" rx="42" ry="4" transform="matrix(1 0 0 1 593.85799999999995 272.70800000000003)" fill="rgb(230,230,230)" stroke="none" stroke-width="1"/><polygon id="undraw_share_opinion_re_4qk7-polygon1" points="965.998000,99.868000 579.346000,99.868000 579.346000,226.799000 593.992000,226.799000 593.992000,259.997000 627.189000,226.799000 965.998000,226.799000 965.998000,99.868000" fill="rgb(255,149,95)" stroke="none" stroke-width="1"/><rect id="undraw_share_opinion_re_4qk7-rect1" width="175.821000" height="5.335720" rx="0" ry="0" transform="matrix(1 0 0 1 622.38099999999997 142.85200000000000)" fill="rgb(255,255,255)" stroke="none" stroke-width="1"/><rect id="undraw_share_opinion_re_4qk7-rect2" width="306.441000" height="5.335720" rx="0" ry="0" transform="matrix(1 0 0 1 622.38099999999997 161.31000000000000)" fill="rgb(255,255,255)" stroke="none" stroke-width="1"/><rect id="undraw_share_opinion_re_4qk7-rect3" width="306.141000" height="5.335720" rx="0" ry="0" transform="matrix(1 0 0 1 622.38099999999997 179.76800000000000)" fill="rgb(255,255,255)" stroke="none" stroke-width="1"/><polygon id="undraw_share_opinion_re_4qk7-polygon2" points="867.219000,482.708000 558.580000,482.708000 558.580000,584.029000 570.271000,584.029000 570.271000,610.528000 596.770000,584.029000 867.219000,584.029000 867.219000,482.708000" fill="rgb(255,149,95)" stroke="none" stroke-width="1"/><rect id="undraw_share_opinion_re_4qk7-rect4" width="140.346000" height="4.259160" rx="0" ry="0" transform="matrix(1 0 0 1 592.93200000000002 517.01900000000001)" fill="rgb(255,255,255)" stroke="none" stroke-width="1"/><rect id="undraw_share_opinion_re_4qk7-rect5" width="244.612000" height="4.259160" rx="0" ry="0" transform="matrix(1 0 0 1 592.93200000000002 531.75300000000004)" fill="rgb(255,255,255)" stroke="none" stroke-width="1"/><rect id="undraw_share_opinion_re_4qk7-rect6" width="244.372000" height="4.259150" rx="0" ry="0" transform="matrix(1 0 0 1 592.93200000000002 546.48699999999997)" fill="rgb(255,255,255)" stroke="none" stroke-width="1"/><ellipse id="undraw_share_opinion_re_4qk7-ellipse2" rx="33.525800" ry="3.192940" transform="matrix(1 0 0 1 570.16300000000001 620.67499999999995)" fill="rgb(230,230,230)" stroke="none" stroke-width="1"/><ellipse id="undraw_share_opinion_re_4qk7-ellipse3" rx="42" ry="4" transform="matrix(1 0 0 1 477.85800000000000 420.70800000000003)" fill="rgb(230,230,230)" stroke="none" stroke-width="1"/><polygon id="undraw_share_opinion_re_4qk7-polygon3" points="220.435000,298.894000 492.342000,298.894000 492.342000,388.157000 482.042000,388.157000 482.042000,411.502000 458.697000,388.157000 220.435000,388.157000 220.435000,298.894000" fill="rgb(255,149,95)" stroke="none" stroke-width="1"/><rect id="undraw_share_opinion_re_4qk7-rect7" width="123.643000" height="3.752260" rx="0" ry="0" transform="matrix(1 0 0 1 248.63800000000001 328.43500000000000)" fill="rgb(255,255,255)" stroke="none" stroke-width="1"/><rect id="undraw_share_opinion_re_4qk7-rect8" width="215.499000" height="3.752260" rx="0" ry="0" transform="matrix(1 0 0 1 248.63800000000001 341.41600000000000)" fill="rgb(255,255,255)" stroke="none" stroke-width="1"/><rect id="undraw_share_opinion_re_4qk7-rect9" width="215.288000" height="3.752260" rx="0" ry="0" transform="matrix(1 0 0 1 248.63800000000001 354.39600000000002)" fill="rgb(255,255,255)" stroke="none" stroke-width="1"/><path id="undraw_share_opinion_re_4qk7-path3" d="M204.984830,602.740500C207.699749,607.415392,213.690373,609.004264,218.365265,606.289345C223.040157,603.574426,224.629029,597.583802,221.914110,592.908910C221.640412,592.450170,221.332223,592.012910,220.992210,591.600910L229.226500,532.911480L229.473070,531.153140L231.145690,519.177260L231.392260,517.451110L230.480830,517.493970L214.527380,518.223030L210.249250,518.416030L209.713180,529.341230L206.678910,590.764690C203.415952,593.886192,202.715698,598.836436,204.984830,602.740500Z" transform="matrix(1 0 0 1 -117.00100000000000 -86.11100000000000)" fill="rgb(160,97,106)" stroke="none" stroke-width="1"/><path id="undraw_share_opinion_re_4qk7-path4" d="M229.425700,531.687270L209.167940,529.828810C206.980741,529.621814,205.370135,527.689091,205.560940,525.500420L209.318430,483.373550C209.814206,477.802819,213.298751,472.941848,218.415233,470.683430C223.531715,468.425012,229.471372,469.126135,233.921385,472.513791C238.371399,475.901448,240.628356,481.440152,239.813430,486.973210L233.739140,528.293880C233.450759,530.250604,231.773129,531.701198,229.795270,531.704020C229.673050,531.704000,229.549510,531.698790,229.425700,531.687270Z" transform="matrix(1 0 0 1 -117.00100000000000 -86.11100000000000)" fill="rgb(204,204,204)" stroke="none" stroke-width="1"/><path id="undraw_share_opinion_re_4qk7-path5" d="M214.073150,497.651420C209.862618,485.724774,214.103542,472.453342,224.449990,465.178420C232.089050,459.951700,242.542510,458.075420,253.800070,471.477300C276.315200,498.281000,282.212000,527.765130,282.212000,527.765130L236.109590,535.270130C236.109590,535.270130,220.429590,516.105700,214.073150,497.651420Z" transform="matrix(1 0 0 1 -117.00100000000000 -86.11100000000000)" fill="rgb(204,204,204)" stroke="none" stroke-width="1"/><polygon id="undraw_share_opinion_re_4qk7-polygon4" points="171.635000,713.464000 184.779000,713.464000 191.032000,662.764000 171.633000,662.765000 171.635000,713.464000" fill="rgb(160,97,106)" stroke="none" stroke-width="1"/><path id="undraw_share_opinion_re_4qk7-path6" d="M285.819330,795.819150L327.130000,795.819150L327.130000,811.780100L298.566480,811.780100C295.185726,811.780100,291.943438,810.437101,289.552884,808.046546C287.162329,805.655992,285.819330,802.413704,285.819330,799.032950L285.819330,795.819150Z" transform="matrix(-1 0.00004599999808 -0.00004599999808 -1 495.98500000000001 1521.47000000000003)" fill="rgb(47,46,65)" stroke="none" stroke-width="1"/><polygon id="undraw_share_opinion_re_4qk7-polygon5" points="63.569000,702.001000 76.049000,706.126000 97.899000,659.951000 79.480000,653.863000 63.569000,702.001000" fill="rgb(160,97,106)" stroke="none" stroke-width="1"/><path id="undraw_share_opinion_re_4qk7-path7" d="M175.525750,789.741000L216.836430,789.741000L216.836430,805.702000L188.272900,805.702000C184.892146,805.702000,181.649858,804.359001,179.259304,801.968446C176.868749,799.577892,175.525750,796.335604,175.525750,792.954850L175.525750,789.741000Z" transform="matrix(-0.94947900000000 -0.31383000000000 0.31383000000000 -0.94947900000000 15.10140000000000 1530.59999999999991)" fill="rgb(47,46,65)" stroke="none" stroke-width="1"/><circle id="undraw_share_opinion_re_4qk7-circle1" r="26.333100" transform="matrix(0.87745400000000 -0.47966000000000 0.47966000000000 0.87745400000000 126.01024631399997 339.44094834800006)" fill="rgb(160,97,106)" stroke="none" stroke-width="1"/><path id="undraw_share_opinion_re_4qk7-path8" d="M266.067490,785.461000L253.860490,704.894860C253.591994,703.121462,252.106036,701.786026,250.314137,701.707739C248.522238,701.629452,246.925476,702.830206,246.503340,704.573430L227.914530,781.352490C227.307498,783.790273,224.942525,785.363597,222.459530,784.981490L171.184050,776.740390C169.808518,776.519413,168.595643,775.714650,167.857446,774.533132C167.119249,773.351614,166.927792,771.908682,167.332330,770.575540L234.192440,550.146310C234.382445,549.519135,234.405005,548.853155,234.257880,548.214560L232.031650,538.568360C231.528476,536.416149,232.557753,534.198182,234.526180,533.192950C243.630540,528.547320,266.685410,518.889610,284.092910,529.468700C285.234678,530.164937,286.040610,531.299317,286.322280,532.606620L338.553240,778.092000C338.840622,779.442292,338.535816,780.851008,337.715940,781.961721C336.896065,783.072433,335.639669,783.778731,334.264640,783.901910L271.268300,789.543260Q271.050400,789.562120,270.835880,789.562110C268.452715,789.557595,266.428521,787.816664,266.067490,785.461000Z" transform="matrix(1 0 0 1 -117.00100000000000 -86.11100000000000)" fill="rgb(47,46,65)" stroke="none" stroke-width="1"/><path id="undraw_share_opinion_re_4qk7-path9" d="M225.549830,406.947200C227.534903,405.753291,229.296535,404.222312,230.755540,402.423080C232.218680,400.574566,232.612633,398.097126,231.795050,395.885940C230.464630,392.950880,226.510990,392.021220,223.447780,393.021860C220.384570,394.022500,218.017870,396.422360,215.779020,398.740140C213.806920,400.781760,211.778560,402.912680,210.843070,405.592650C209.907580,408.272620,210.388160,411.670070,212.714890,413.296010C214.998250,414.891650,218.281140,414.238450,220.477300,412.524780C222.673460,410.811110,224.032890,408.268200,225.329110,405.802520Z" transform="matrix(1 0 0 1 -117.00100000000000 -86.11100000000000)" fill="rgb(47,46,65)" stroke="none" stroke-width="1"/><path id="undraw_share_opinion_re_4qk7-path10" d="M216.631260,399.444070C216.485260,392.024330,208.027830,386.704210,200.724030,388.018930C193.420230,389.333650,187.805920,395.561270,184.995640,402.429770C179.057970,416.941770,183.515350,433.500000,189.236520,448.098770C194.957690,462.697540,202.037610,477.517410,201.203130,493.174940C200.054117,510.416987,189.554402,525.644934,173.847540,532.849300C182.090610,536.585680,191.943540,532.725770,198.870310,526.900980C214.253500,513.965130,220.191400,490.935110,212.980790,472.173830C209.424310,462.920250,203.156720,455.003830,198.263490,446.382150C193.370260,437.760470,189.780080,427.600150,192.306400,418.013950C194.832720,408.427750,205.583970,400.663710,214.775640,404.377250Z" transform="matrix(1 0 0 1 -117.00100000000000 -86.11100000000000)" fill="rgb(47,46,65)" stroke="none" stroke-width="1"/><path id="undraw_share_opinion_re_4qk7-path11" d="M244.590230,437.237540C242.294920,433.358160,239.977340,428.265430,244.174230,424.874680C246.017466,423.452923,248.356157,422.834538,250.661230,423.159420C255.391940,423.729730,260.543360,423.964710,265.121930,422.246070C268.591411,421.051990,271.428674,418.502515,272.985620,415.180010C275.349490,409.579270,272.389410,402.773360,267.447720,399.232760C261.266557,394.965066,253.128674,394.821143,246.800470,398.867600C240.399990,396.040840,232.634000,397.297700,226.819230,401.189390C221.004460,405.081080,217.025490,411.313390,214.863900,417.968030C212.872812,423.696056,212.529986,429.868049,213.874450,435.781350C216.070442,444.130277,222.199291,450.884088,230.296450,453.877910C233.459653,455.124608,237.047414,454.592255,239.712330,452.480780C242.377246,450.369305,243.341760,449.312620,244.477430,445.496580C245.349690,442.565600,245.816590,439.310260,244.590230,437.237540Z" transform="matrix(1 0 0 1 -117.00100000000000 -86.11100000000000)" fill="rgb(47,46,65)" stroke="none" stroke-width="1"/><path id="undraw_share_opinion_re_4qk7-path12" d="M322.709290,460.734410C322.577678,461.312908,322.491892,461.900884,322.452730,462.492870L276.395940,489.062870L265.201190,482.618250L253.266920,498.241900L271.976290,511.576800C275.080999,513.789655,279.273713,513.687508,282.266980,511.326090L329.759450,473.858960C334.147886,475.483408,339.083632,474.222891,342.155758,470.693126C345.227883,467.163361,345.795331,462.100902,343.580922,457.978573C341.366513,453.856245,336.832327,451.534251,332.193149,452.146801C327.553970,452.759351,323.777852,456.178624,322.709290,460.734430Z" transform="matrix(1 0 0 1 -117.00100000000000 -86.11100000000000)" fill="rgb(160,97,106)" stroke="none" stroke-width="1"/><path id="undraw_share_opinion_re_4qk7-path13" d="M274.856210,490.321290L259.970780,509.613500C259.113743,510.724217,257.815687,511.406884,256.414859,511.483611C255.014031,511.560339,253.649181,511.023528,252.675960,510.013060L235.824640,492.514290C230.001637,487.969752,228.954712,479.569928,233.484068,473.735108C238.013424,467.900287,246.410492,466.831487,252.257090,471.345630L273.392320,483.163700C274.616610,483.848774,275.482073,485.032821,275.763185,486.407299C276.044297,487.781776,275.713214,489.210544,274.856210,490.321290Z" transform="matrix(1 0 0 1 -117.00100000000000 -86.11100000000000)" fill="rgb(204,204,204)" stroke="none" stroke-width="1"/><path id="undraw_share_opinion_re_4qk7-path14" d="M426.273870,813.889000L118.253000,813.889000C117.561473,813.889000,117.000880,813.328407,117.000880,812.636880C117.000880,811.945353,117.561473,811.384760,118.253000,811.384760L426.273900,811.384760C426.965427,811.384760,427.526020,811.945353,427.526020,812.636880C427.526020,813.328407,426.965427,813.889000,426.273900,813.889000Z" transform="matrix(1 0 0 1 -117.00100000000000 -86.11100000000000)" fill="rgb(204,204,204)" stroke="none" stroke-width="1"/></svg>